<svg xmlns="http://www.w3.org/2000/svg" viewBox="0 0 64 64">
  <rect width="64" height="64" fill="#0a2a6b"/>

  <!-- O: high-contrast serif, thin top/bottom, thick sides -->
  <path d="
    M 22 32
    C 22 22.5, 25.5 17, 31 17
    C 36.5 17, 40 22.5, 40 32
    C 40 41.5, 36.5 47, 31 47
    C 25.5 47, 22 41.5, 22 32
    Z
    M 31 19.5
    C 28 19.5, 26.5 24, 26.5 32
    C 26.5 40, 28 44.5, 31 44.5
    C 34 44.5, 35.5 40, 35.5 32
    C 35.5 24, 34 19.5, 31 19.5
    Z
  " fill="#f5f1ea" fill-rule="evenodd"/>

  <!-- P: thick vertical stem, bowl on top -->
  <path d="
    M 41.5 17
    L 51 17
    C 55.5 17, 58 19.5, 58 24
    C 58 28.5, 55.5 31, 51 31
    L 46.5 31
    L 46.5 45
    L 49 45
    L 49 47
    L 41.5 47
    L 41.5 45
    L 44 45
    L 44 19
    L 41.5 19
    Z
    M 46.5 19
    L 46.5 29
    L 50.5 29
    C 52.5 29, 53.5 27.5, 53.5 24
    C 53.5 20.5, 52.5 19, 50.5 19
    Z
  " fill="#f5f1ea" fill-rule="evenodd"/>
</svg>
